name C:\Users\u0101727\Documents\MyRepositories\upper-imu-dc\Results\main_tracking\Case_67\kinematics.mot
datacolumns 10
datarows 33
range 0.50000000 0.82000000
endheader 
time	clav_prot	clav_elev	scapula_abduction	scapula_elevation	scapula_upward_rot	scapula_winging	plane_elv	shoulder_elv	axial_rot	
          0.50000000	        -23.95542799	         -6.58065988	        -15.06915271	         -5.48233096	         11.20888066	          6.72040712	        -30.15330951	         13.33359396	         45.92679138	
          0.51000000	        -23.63090277	         -6.73018180	        -14.77903466	         -5.48362759	         11.16953874	          6.73599249	        -29.45242711	         13.39876617	         45.35841021	
          0.52000000	        -23.60501379	         -6.74824953	        -14.75231133	         -5.48565212	         11.13063036	          6.75176246	        -28.74802672	         13.46225561	         44.78858355	
          0.53000000	        -23.57936331	         -6.76646724	        -14.72584858	         -5.48785388	         11.09190384	          6.76753090	        -28.04129907	         13.52340170	         44.21864962	
          0.54000000	        -23.55417759	         -6.78437433	        -14.69988939	         -5.49000857	         11.05380376	          6.78301798	        -27.33130430	         13.58220006	         43.64912826	
          0.55000000	        -23.52981188	         -6.80161185	        -14.67481486	         -5.49200805	         11.01688465	          6.79796108	        -26.61612990	         13.63878293	         43.08015394	
          0.56000000	        -23.50672275	         -6.81786521	        -14.65113607	         -5.49380162	         10.98176354	          6.81210352	        -25.89338525	         13.69339982	         42.51156297	
          0.57000000	        -23.48543925	         -6.83282736	        -14.62943987	         -5.49537201	         10.94914346	          6.82517423	        -25.16037565	         13.74645316	         41.94275788	
          0.58000000	        -23.46651623	         -6.84622548	        -14.61029677	         -5.49675610	         10.91982421	          6.83689468	        -24.41410845	         13.79855874	         41.37244056	
          0.59000000	        -23.45040615	         -6.85788154	        -14.59406985	         -5.49806362	         10.89462633	          6.84701723	        -23.65115571	         13.85062856	         40.79820651	
          0.60000000	        -23.43720679	         -6.86771858	        -14.58063268	         -5.49939267	         10.87411556	          6.85538559	        -22.86755567	         13.90398314	         40.21621241	
          0.61000000	        -23.42661252	         -6.87579541	        -14.56948906	         -5.50075172	         10.85822179	          6.86203573	        -22.05945188	         13.96041016	         39.62198988	
          0.62000000	        -23.41835202	         -6.88194337	        -14.56073688	         -5.50174066	         10.84599969	          6.86711956	        -21.22371630	         14.02210620	         39.00979737	
          0.63000000	        -23.41199684	         -6.88471346	        -14.55457655	         -5.50091153	         10.83633713	          6.87032004	        -20.35602601	         14.09087176	         38.37226701	
          0.64000000	        -23.40710960	         -6.88455001	        -14.55035728	         -5.49848670	         10.82887812	          6.87188564	        -19.45256426	         14.16875525	         37.70258284	
          0.65000000	        -23.40326733	         -6.88205793	        -14.54743651	         -5.49480512	         10.82323314	          6.87213612	        -18.50872938	         14.25818124	         36.99340968	
          0.66000000	        -23.40033106	         -6.87898515	        -14.54500543	         -5.49130456	         10.81973933	          6.87167608	        -17.52039349	         14.36154820	         36.23760193	
          0.67000000	        -23.39778636	         -6.87794014	        -14.54244454	         -5.48957370	         10.81688958	          6.87187091	        -16.48419475	         14.48114495	         35.42902779	
          0.68000000	        -23.39482860	         -6.87943621	        -14.53910977	         -5.48955069	         10.81315050	          6.87326157	        -15.39891148	         14.61811727	         34.56256810	
          0.69000000	        -23.39091057	         -6.88273543	        -14.53490410	         -5.49030066	         10.80729453	          6.87583290	        -14.26391612	         14.77368569	         33.63462887	
          0.70000000	        -23.38640573	         -6.88506290	        -14.53001755	         -5.49020509	         10.80123224	          6.87805542	        -13.07822178	         14.94559971	         32.64213095	
          0.71000000	        -23.38120254	         -6.88593923	        -14.52434673	         -5.48889316	         10.79499382	          6.87973078	        -11.84236587	         15.13323627	         31.58462710	
          0.72000000	        -23.37636473	         -6.88540520	        -14.52035862	         -5.48614931	         10.78740994	          6.88117755	        -10.55482002	         15.33618803	         30.46183243	
          0.73000000	        -23.37325498	         -6.88351508	        -14.52006706	         -5.48225201	         10.77904908	          6.88231968	         -9.21408954	         15.55182459	         29.27627568	
          0.74000000	        -23.37106948	         -6.88043549	        -14.52004017	         -5.47825337	         10.77354413	          6.88234862	         -7.82048669	         15.77414951	         28.03209136	
          0.75000000	        -23.36833246	         -6.88513928	        -14.51514679	         -5.48132743	         10.77202713	          6.88447714	         -6.36781132	         16.00107284	         26.72840500	
          0.76000000	        -23.36784167	         -6.89769943	        -14.50031461	         -5.49646611	         10.79228725	          6.88463384	         -4.85141471	         16.21171835	         25.36646477	
          0.77000000	        -23.34716016	         -6.92722485	        -14.44126713	         -5.52631740	         10.82301909	          6.88847881	         -3.29014522	         16.42481238	         23.97073114	
          0.78000000	        -23.29676732	         -6.96688091	        -14.32228201	         -5.56540018	         10.86577165	          6.89268526	         -1.70699063	         16.64503145	         22.55039975	
          0.79000000	        -23.21747177	         -7.01273920	        -14.14843467	         -5.60934560	         10.91541737	          6.89681658	         -0.10392200	         16.88387282	         21.11456620	
          0.80000000	        -23.11766202	         -7.06120848	        -13.93481880	         -5.65592325	         10.97208951	          6.89950908	          1.51900214	         17.14568144	         19.66907352	
          0.81000000	        -23.00497122	         -7.11066852	        -13.69299190	         -5.70524652	         11.03916692	          6.89943784	          3.15476779	         17.43078190	         18.22249409	
          0.82000000	        -22.88466949	         -7.15889956	        -13.43291651	         -5.75569199	         11.11582608	          6.89600042	          4.79969159	         17.74066474	         16.78102643	
